<svg viewBox="0 0 1024 1024" version="1.1"
	 xmlns="http://www.w3.org/2000/svg"
	 width="200" height="200" fill="#3B3B3B">
	<path
		d="M1008.618567 392.01748l-383.019709-383.019709C606.447872-10.153214 574.529563 2.61411 568.145902 34.532419l-6.383662 57.452956-6.383662 70.22028c0 12.767324-6.383662 19.150985-12.767324 25.534647L236.195487 404.784804c-6.383662 6.383662-12.767324 6.383662-25.534647 6.383662h-12.767324l-57.452956-6.383662c-31.918309 0-51.069295 38.301971-25.534647 57.452956l44.685632 44.685633 127.673237 127.673236L0 1024l383.019709-287.264782 172.358869 172.358869c25.534647 25.534647 63.836618 6.383662 57.452956-25.534647l-6.383662-57.452956v-12.767324c0-6.383662 0-19.150985 6.383662-25.534647L829.876036 481.388746c6.383662-6.383662 12.767324-12.767324 25.534647-12.767324l70.22028-6.383662 57.452957-6.383662c38.301971-6.383662 51.069295-38.301971 25.534647-63.836618z m-255.346473 31.918309l-217.044501 306.415767s0 6.383662-6.383662 6.383662L287.264782 494.156069s6.383662 0 6.383662-6.383662l306.415767-217.044501c31.918309-19.150985 51.069295-51.069295 57.452956-89.371266l178.742531 178.742531c-31.918309 12.767324-63.836618 31.918309-82.987604 63.836618z"
		/>
</svg>
