<svg viewBox="0 0 1024 1024" version="1.1"
	 xmlns="http://www.w3.org/2000/svg" width="200"
	 height="200">
	<path
		d="M764.394366 588.97307c-93.111887 0-170.503211 64.930254-190.69476 151.667381-47.118423-20.148282-90.861972-14.552338-123.399212-0.562479C429.546366 653.340845 352.155042 588.97307 259.605634 588.97307c-108.255549 0-196.305127 87.862085-196.305127 195.886874C63.300507 892.87031 151.350085 980.732394 259.605634 980.732394c103.207662 0 186.771831-79.468169 194.61769-180.209577 16.831099-11.754366 61.151549-33.575662 115.553352 1.124958C578.747493 901.826704 661.749183 980.732394 764.394366 980.732394c108.255549 0 196.305127-87.862085 196.305127-195.87245 0-108.024789-88.049577-195.886873-196.305127-195.886874z m-504.788732 55.959437c77.405746 0 140.215887 62.694761 140.215887 139.927437 0 77.232676-62.810141 139.898592-140.215887 139.898591-77.405746 0-140.215887-62.665915-140.215888-139.898591 0-77.232676 62.810141-139.927437 140.215888-139.927437z m504.788732 0c77.405746 0 140.215887 62.694761 140.215888 139.927437 0 77.232676-62.810141 139.898592-140.215888 139.898591-77.405746 0-140.215887-62.665915-140.215887-139.898591 0-77.232676 62.810141-139.927437 140.215887-139.927437zM1016.788732 475.943662H7.211268v57.690141h1009.577464v-57.690141zM697.675718 77.016338c-11.538028-26.249014-41.334986-40.094648-69.011831-30.907493L512 85.294873l-117.226366-39.186028-2.769127-0.836507c-27.806648-7.687211-57.026704 7.355493-67.338817 34.426592L196.78107 418.253521h630.43786L698.771831 79.69893l-1.096113-2.682592z"
		fill="#a0a0a0"/>
</svg>
