<svg
	viewBox="0 0 1024 1024" version="1.1"
	xmlns="http://www.w3.org/2000/svg" width="32" height="32"
	fill="#272636">
	<path d="M924.352 844.256l-163.968-163.968c44.992-62.912 71.808-139.648 71.808-222.72 0-211.776-172.224-384-384-384s-384 172.224-384 384 172.224 384 384 384c82.56 0 158.912-26.432 221.568-70.912l164.16 164.16c12.416 12.416 38.592 15.04 51.072 2.624l45.248-45.248c12.416-12.544 6.592-35.392-5.888-47.936zM128.128 457.568c0-176.448 143.552-320 320-320s320 143.552 320 320-143.552 320-320 320-320-143.552-320-320z"></path>
</svg>
