<svg viewBox="0 0 1024 1024" version="1.1" xmlns="http://www.w3.org/2000/svg" width="20" height="20">
	<path d="M0 512a512 512 0 1 0 1024 0 512 512 0 1 0-1024 0Z" fill="#F3F6FF" />
	<path d="M238.933333 512a273.066667 273.066667 0 1 0 546.133334 0 273.066667 273.066667 0 1 0-546.133334 0Z" fill="#247EFF" />
	<path d="M486.4 341.333333q0-2.525867 0.477867-4.983466 0.512-2.491733 1.467733-4.8128 0.955733-2.321067 2.389333-4.437334 1.365333-2.082133 3.1744-3.857066 1.774933-1.809067 3.857067-3.208534 2.116267-1.365333 4.437333-2.3552 2.321067-0.955733 4.778667-1.467733 2.491733-0.477867 5.0176-0.477867t4.983467 0.477867q2.491733 0.512 4.8128 1.467733 2.321067 0.955733 4.437333 2.389334 2.082133 1.365333 3.857067 3.1744 1.809067 1.774933 3.208533 3.857066 1.365333 2.116267 2.3552 4.437334 0.955733 2.321067 1.467733 4.778666 0.477867 2.491733 0.477867 5.0176v158.378667l75.707733 60.552533q2.2528 1.809067 4.061867 4.096 1.774933 2.218667 3.037867 4.8128 1.262933 2.594133 1.877333 5.393067 0.648533 2.833067 0.648533 5.700267 0 2.525867-0.477866 4.983466-0.512 2.491733-1.467734 4.8128-0.955733 2.321067-2.389333 4.437334-1.365333 2.082133-3.1744 3.857066-1.774933 1.809067-3.857067 3.208534-2.116267 1.365333-4.437333 2.3552-2.321067 0.955733-4.778667 1.467733-2.491733 0.477867-5.0176 0.477867-4.369067 0-8.465066-1.4336-4.096-1.467733-7.509334-4.164267l-85.333333-68.266667q-2.2528-1.809067-4.061867-4.096-1.774933-2.218667-3.037866-4.8128-1.262933-2.594133-1.877334-5.393066-0.648533-2.833067-0.648533-5.700267v-170.666667z" fill="#FFFFFF" />
	<path d="M528.008533 491.997867l85.333334 68.266666q2.218667 1.809067 4.027733 4.096 1.774933 2.218667 3.037867 4.8128 1.262933 2.594133 1.877333 5.393067 0.648533 2.833067 0.648533 5.700267 0 2.525867-0.477866 4.983466-0.512 2.491733-1.467734 4.8128-0.955733 2.321067-2.389333 4.437334-1.365333 2.082133-3.1744 3.857066-1.774933 1.809067-3.857067 3.208534-2.116267 1.365333-4.437333 2.3552-2.321067 0.955733-4.778667 1.467733-2.491733 0.477867-5.0176 0.477867-4.369067 0-8.465066-1.4336-4.096-1.467733-7.509334-4.164267l-85.333333-68.266667q-2.2528-1.809067-4.061867-4.096-1.774933-2.218667-3.037866-4.8128-1.262933-2.594133-1.877334-5.393066-0.648533-2.833067-0.648533-5.700267 0-2.525867 0.477867-4.983467 0.512-2.491733 1.467733-4.8128 0.955733-2.321067 2.389333-4.437333 1.365333-2.082133 3.1744-3.857067 1.774933-1.809067 3.857067-3.208533 2.116267-1.365333 4.437333-2.3552 2.321067-0.955733 4.778667-1.467733 2.491733-0.477867 5.0176-0.477867 4.369067 0 8.465067 1.4336 4.096 1.467733 7.509333 4.164267z" fill="#B8D5FF" />
</svg>
