<svg viewBox="0 0 1024 1024" version="1.1"
	 xmlns="http://www.w3.org/2000/svg"
	 width="200" height="200" fill="#d81e06">
	<path
		d="M837.618696 480.385109l-99.816294 141.022507-78.18943-67.056074 94.249616-133.216362q32.63225-46.197028 87.019333-55.666779L658.589216 183.239681q-9.405766 54.387083-55.602795 87.019332L452.494163 376.793711 372.12925 307.946063 543.736493 186.438921a34.167885 34.167885 0 0 0 14.268611-24.122271l7.998101-71.79095 0.063985-0.767817 6.590434-59.121959a34.167885 34.167885 0 0 1 58.162187-20.411152l383.013034 383.013034a34.23187 34.23187 0 0 1-20.475137 58.226171l-59.057974 6.52645-0.767817 0.12797-71.79095 7.934116a34.167885 34.167885 0 0 0-24.122271 14.268611zM32.881821 164.620103a47.988603 47.988603 0 1 1 62.449168-72.814707l895.787251 767.817644a47.988603 47.988603 0 1 1-62.449168 72.814706l-895.787251-767.817643z m354.155888 569.208813L562.036147 908.827354a34.167885 34.167885 0 0 0 58.226171-27.321512l-5.438708-60.017745-0.511879-5.502694-0.447893-5.118784a34.167885 34.167885 0 0 1 6.142541-22.90656l43.637636-61.68135L585.3906 659.286619l-49.140329 69.487497-3.711119 5.502693-242.69436-242.69436q2.815331-1.791575 5.502693-3.711118l49.332284-34.871718L264.378841 384.151964l-28.281284 19.963259a34.167885 34.167885 0 0 1-22.842575 6.142541l-5.118784-0.447894-5.566678-0.511878-60.017746-5.438709a34.167885 34.167885 0 0 0-27.257526 58.226172l174.998438 174.998438L0.121602 1024l386.916107-290.171084z"
	/>
</svg>
